<?xml version="1.0" ?><!DOCTYPE svg  PUBLIC '-//W3C//DTD SVG 1.1//EN'  'http://www.w3.org/Graphics/SVG/1.1/DTD/svg11.dtd'><svg enable-background="new 0 0 128 128" height="128px" id="Layer_1" version="1.1" viewBox="0 0 128 128" width="128px" xml:space="preserve" xmlns="http://www.w3.org/2000/svg" xmlns:xlink="http://www.w3.org/1999/xlink"><g id="messages"><path d="M8.5,74.172c0-20.191,19.096-36.558,42.652-36.558s42.652,16.368,42.652,36.558   s-19.096,36.559-42.652,36.559c-4.665,0-9.151-0.651-13.353-1.838L8.5,114.386l9.996-16.706C12.261,91.324,8.5,83.126,8.5,74.172z" fill="#D0D0D0"/><path d="M51.152,37.614c-5.703,0-11.14,0.967-16.113,2.708c-1.187,3.292-1.828,6.79-1.828,10.417   c0,19.461,18.406,35.238,41.111,35.238c4.497,0,8.82-0.628,12.87-1.771l4.678,0.877c1.255-3.446,1.933-7.11,1.933-10.91   C93.803,53.981,74.707,37.614,51.152,37.614z" opacity="0.1"/><path d="M119.433,46.738c0-19.461-18.406-35.238-41.111-35.238S37.211,27.277,37.211,46.738   s18.406,35.238,41.111,35.238c4.497,0,8.82-0.628,12.87-1.771l28.241,5.295l-9.635-16.103   C115.808,63.271,119.433,55.369,119.433,46.738z" fill="#3688D8"/><circle cx="80.333" cy="49" opacity="0.1" r="8"/><circle cx="103.333" cy="49" opacity="0.1" r="8"/><circle cx="57.333" cy="49" opacity="0.1" r="8"/><circle cx="78.333" cy="47" fill="#EDEDED" r="8"/><circle cx="101.333" cy="47" fill="#EDEDED" r="8"/><circle cx="55.333" cy="47" fill="#EDEDED" r="8"/></g></svg>