<?xml version="1.0" ?><svg id="Layer_1" style="enable-background:new 0 0 1550 1550;" version="1.1" viewBox="0 0 1550 1550" xml:space="preserve" xmlns="http://www.w3.org/2000/svg" xmlns:xlink="http://www.w3.org/1999/xlink"><style type="text/css">
	.st0{fill:#F8F6F7;}
	.st1{fill:#FFE356;}
</style><g><g><g id="XMLID_2_"><path class="st0" d="M1519,401v925c0,33.14-26.86,60-60,60H91c-33.14,0-60-26.86-60-60V401H1519z"/><path class="st1" d="M1519,224v177H31V224c0-33.14,26.86-60,60-60h1368C1492.14,164,1519,190.86,1519,224z"/></g></g><g><g><g><path d="M1519,422c-11.6,0-21-9.4-21-21V224c0-21.5-17.5-39-39-39H91c-21.5,0-39,17.5-39,39v177c0,11.6-9.4,21-21,21      s-21-9.4-21-21V224c0-44.66,36.34-81,81-81h1368c44.66,0,81,36.34,81,81v177C1540,412.6,1530.6,422,1519,422z"/></g><g><path d="M1459,1407H91c-44.66,0-81-36.34-81-81V401c0-11.6,9.4-21,21-21h1488c11.6,0,21,9.4,21,21v925      C1540,1370.66,1503.66,1407,1459,1407z M52,422v904c0,21.5,17.5,39,39,39h1368c21.5,0,39-17.5,39-39V422H52z"/></g><g><g><path d="M217.99,317.5L217.99,317.5c-19.33,0-35-15.67-35-35l0,0c0-19.33,15.67-35,35-35l0,0c19.33,0,35,15.67,35,35l0,0       C252.99,301.83,237.32,317.5,217.99,317.5z"/></g><g><path d="M355.99,317.5L355.99,317.5c-19.33,0-35-15.67-35-35l0,0c0-19.33,15.67-35,35-35l0,0c19.33,0,35,15.67,35,35l0,0       C390.99,301.83,375.32,317.5,355.99,317.5z"/></g><g><path d="M493.99,317.5L493.99,317.5c-19.33,0-35-15.67-35-35l0,0c0-19.33,15.67-35,35-35l0,0c19.33,0,35,15.67,35,35l0,0       C528.99,301.83,513.32,317.5,493.99,317.5z"/></g></g><g><g><path d="M360.06,640.73v58.76h89.68v-58.76c0-8.39,1.89-14.69,5.67-18.89c3.78-4.2,8.74-6.3,14.9-6.3       c6.25,0,11.31,2.08,15.18,6.23c3.87,4.15,5.81,10.47,5.81,18.96v161.58c0,8.49-1.96,14.83-5.88,19.03       c-3.92,4.2-8.95,6.3-15.11,6.3c-6.25,0-11.24-2.12-14.97-6.36s-5.6-10.56-5.6-18.96v-68.97h-89.68v68.97       c0,8.49-1.96,14.83-5.88,19.03c-3.92,4.2-8.95,6.3-15.11,6.3c-6.25,0-11.24-2.12-14.97-6.36s-5.6-10.56-5.6-18.96v-161.6       c0-8.39,1.84-14.69,5.53-18.89c3.68-4.2,8.7-6.3,15.04-6.3c6.25,0,11.31,2.08,15.18,6.23       C358.12,625.93,360.06,632.25,360.06,640.73z"/></g><g><path d="M671.06,651.08h-93.59v50.36h86.18c6.34,0,11.07,1.42,14.2,4.27c3.12,2.85,4.69,6.6,4.69,11.26       c0,4.66-1.54,8.46-4.62,11.4s-7.83,4.41-14.27,4.41h-86.18v58.34h96.81c6.53,0,11.45,1.52,14.76,4.55       c3.31,3.03,4.97,7.07,4.97,12.1c0,4.85-1.66,8.79-4.97,11.82c-3.31,3.03-8.23,4.55-14.76,4.55h-112.9       c-9.05,0-15.55-2-19.52-6.02c-3.97-4.01-5.95-10.49-5.95-19.45V644.51c0-5.97,0.89-10.84,2.66-14.62       c1.77-3.78,4.55-6.53,8.32-8.25c3.78-1.72,8.6-2.59,14.48-2.59h109.68c6.62,0,11.54,1.47,14.76,4.41       c3.22,2.94,4.83,6.79,4.83,11.54c0,4.85-1.61,8.74-4.83,11.68C682.6,649.61,677.68,651.08,671.06,651.08z"/></g><g><path d="M767.73,640.73V790h84.22c6.72,0,11.87,1.63,15.46,4.9s5.39,7.37,5.39,12.31c0,5.04-1.77,9.12-5.32,12.24       c-3.55,3.13-8.72,4.69-15.53,4.69H751.64c-9.05,0-15.55-2-19.52-6.02c-3.97-4.01-5.95-10.49-5.95-19.45V640.73       c0-8.39,1.89-14.69,5.67-18.89c3.78-4.2,8.74-6.3,14.9-6.3c6.25,0,11.31,2.08,15.18,6.23       C765.79,625.93,767.73,632.25,767.73,640.73z"/></g><g><path d="M940.78,640.73V790H1025c6.71,0,11.87,1.63,15.46,4.9s5.39,7.37,5.39,12.31c0,5.04-1.77,9.12-5.32,12.24       c-3.55,3.13-8.72,4.69-15.53,4.69H924.69c-9.05,0-15.55-2-19.52-6.02c-3.97-4.01-5.95-10.49-5.95-19.45V640.73       c0-8.39,1.89-14.69,5.67-18.89s8.74-6.3,14.9-6.3c6.25,0,11.31,2.08,15.18,6.23C938.84,625.93,940.78,632.25,940.78,640.73z"/></g><g><path d="M1149.09,615.55c21.26,0,39.52,4.32,54.77,12.94c15.25,8.63,26.79,20.89,34.63,36.79       c7.83,15.9,11.75,34.58,11.75,56.03c0,15.86-2.15,30.27-6.44,43.23c-4.29,12.97-10.73,24.2-19.31,33.72       c-8.58,9.51-19.12,16.79-31.62,21.82c-12.5,5.04-26.81,7.55-42.95,7.55c-16.04,0-30.41-2.59-43.09-7.76       c-12.68-5.18-23.27-12.47-31.76-21.89c-8.49-9.42-14.9-20.75-19.24-34c-4.34-13.24-6.51-27.56-6.51-42.95       c0-15.76,2.26-30.22,6.79-43.37c4.52-13.15,11.07-24.34,19.66-33.58c8.58-9.23,19.03-16.3,31.34-21.19       S1133.42,615.55,1149.09,615.55z M1208.13,721.03c0-15.02-2.43-28.03-7.27-39.03c-4.85-11-11.78-19.33-20.78-24.97       c-9-5.64-19.33-8.46-30.99-8.46c-8.3,0-15.97,1.56-23.01,4.69s-13.1,7.67-18.19,13.64c-5.08,5.97-9.09,13.59-12.03,22.87       c-2.94,9.28-4.41,19.7-4.41,31.27c0,11.66,1.47,22.2,4.41,31.62c2.94,9.42,7.09,17.23,12.45,23.43s11.52,10.84,18.47,13.92       c6.95,3.08,14.57,4.62,22.87,4.62c10.63,0,20.4-2.66,29.31-7.97c8.91-5.32,15.99-13.52,21.26-24.62       C1205.49,750.93,1208.13,737.26,1208.13,721.03z"/></g><g><path d="M402.03,1135.64l-33.16-122.97l-33.58,122.97c-2.61,9.33-4.69,16.02-6.23,20.08c-1.54,4.06-4.22,7.69-8.04,10.91       c-3.83,3.22-8.91,4.83-15.25,4.83c-5.13,0-9.35-0.96-12.66-2.87s-5.99-4.62-8.04-8.11c-2.05-3.5-3.73-7.65-5.04-12.45       c-1.31-4.8-2.47-9.26-3.5-13.36l-34.14-138.08c-2.05-8.02-3.08-14.13-3.08-18.33c0-5.32,1.86-9.79,5.6-13.43       c3.73-3.64,8.35-5.46,13.85-5.46c7.55,0,12.64,2.43,15.25,7.27c2.61,4.85,4.9,11.89,6.85,21.12l26.86,119.75l30.08-112.06       c2.24-8.58,4.24-15.11,6.02-19.59c1.77-4.48,4.66-8.35,8.67-11.61s9.46-4.9,16.37-4.9c7,0,12.43,1.7,16.3,5.11       s6.55,7.11,8.04,11.12s3.5,10.63,6.02,19.86l30.36,112.06l26.86-119.75c1.3-6.25,2.54-11.14,3.71-14.69       c1.17-3.54,3.17-6.72,6.02-9.51c2.84-2.8,6.97-4.2,12.38-4.2c5.41,0,10,1.8,13.78,5.39s5.67,8.09,5.67,13.5       c0,3.83-1.03,9.93-3.08,18.33l-34.14,138.08c-2.33,9.33-4.27,16.16-5.81,20.49c-1.54,4.34-4.15,8.14-7.83,11.4       c-3.69,3.26-8.88,4.9-15.6,4.9c-6.34,0-11.43-1.59-15.25-4.76c-3.83-3.17-6.48-6.74-7.97-10.7       C406.83,1152.03,404.73,1145.24,402.03,1135.64z"/></g><g><path d="M619.29,959.36c21.26,0,39.52,4.31,54.77,12.94c15.25,8.63,26.79,20.89,34.63,36.79c7.83,15.9,11.75,34.58,11.75,56.03       c0,15.86-2.15,30.27-6.44,43.23s-10.73,24.2-19.31,33.72c-8.58,9.51-19.12,16.79-31.62,21.82c-12.5,5.04-26.82,7.55-42.95,7.55       c-16.04,0-30.41-2.59-43.09-7.76c-12.68-5.18-23.27-12.47-31.76-21.89s-14.9-20.75-19.24-34c-4.34-13.24-6.51-27.56-6.51-42.95       c0-15.76,2.26-30.22,6.79-43.37c4.52-13.15,11.07-24.34,19.66-33.57c8.58-9.23,19.03-16.3,31.34-21.2       C589.63,961.81,603.62,959.36,619.29,959.36z M678.33,1064.85c0-15.02-2.43-28.03-7.27-39.03c-4.85-11-11.78-19.33-20.77-24.97       c-9-5.64-19.33-8.46-30.99-8.46c-8.3,0-15.97,1.56-23.01,4.69c-7.04,3.13-13.1,7.67-18.19,13.64       c-5.08,5.97-9.09,13.59-12.03,22.87s-4.41,19.7-4.41,31.27c0,11.66,1.47,22.2,4.41,31.62s7.09,17.23,12.45,23.43       c5.36,6.2,11.52,10.84,18.47,13.92c6.95,3.08,14.57,4.62,22.87,4.62c10.63,0,20.4-2.66,29.31-7.97       c8.91-5.32,15.99-13.52,21.26-24.62C675.69,1094.74,678.33,1081.08,678.33,1064.85z"/></g><g><path d="M811.79,1080.24h-14.55v65.89c0,8.67-1.91,15.06-5.74,19.17c-3.83,4.1-8.81,6.16-14.97,6.16       c-6.62,0-11.75-2.15-15.39-6.44c-3.64-4.29-5.46-10.58-5.46-18.89V988.32c0-8.95,2-15.43,6.02-19.45       c4.01-4.01,10.49-6.02,19.45-6.02h67.57c9.33,0,17.3,0.4,23.92,1.19c6.62,0.79,12.59,2.4,17.91,4.83       c6.44,2.71,12.12,6.57,17.07,11.61c4.94,5.04,8.7,10.89,11.26,17.56s3.85,13.73,3.85,21.19c0,15.3-4.31,27.51-12.94,36.65       c-8.63,9.14-21.71,15.62-39.24,19.45c7.37,3.92,14.41,9.7,21.12,17.35s12.71,15.79,17.98,24.41       c5.27,8.63,9.37,16.42,12.31,23.36c2.94,6.95,4.41,11.73,4.41,14.34c0,2.71-0.86,5.39-2.59,8.04       c-1.73,2.66-4.08,4.76-7.06,6.29c-2.99,1.54-6.44,2.31-10.35,2.31c-4.66,0-8.58-1.1-11.75-3.29c-3.17-2.19-5.9-4.97-8.18-8.32       c-2.29-3.36-5.39-8.3-9.3-14.83l-16.65-27.7c-5.97-10.16-11.31-17.91-16.02-23.22c-4.71-5.32-9.49-8.95-14.34-10.91       C825.27,1081.22,819.16,1080.24,811.79,1080.24z M835.58,994.06h-38.33v56.38h37.21c9.98,0,18.37-0.86,25.18-2.59       c6.81-1.72,12.01-4.66,15.6-8.81s5.39-9.86,5.39-17.14c0-5.69-1.45-10.7-4.34-15.04c-2.89-4.34-6.9-7.58-12.03-9.72       C859.41,995.09,849.85,994.06,835.58,994.06z"/></g><g><path d="M1002.76,984.55v149.27h84.22c6.72,0,11.87,1.63,15.46,4.9s5.39,7.37,5.39,12.31c0,5.04-1.77,9.12-5.32,12.24       c-3.55,3.12-8.72,4.69-15.53,4.69H986.67c-9.05,0-15.55-2-19.52-6.02c-3.97-4.01-5.95-10.49-5.95-19.45V984.54       c0-8.39,1.89-14.69,5.67-18.89c3.78-4.2,8.74-6.29,14.9-6.29c6.25,0,11.31,2.08,15.18,6.23       C1000.82,969.74,1002.76,976.06,1002.76,984.55z"/></g><g><path d="M1160.84,962.86h54.14c14.08,0,26.16,1.31,36.23,3.92s19.21,7.51,27.42,14.69c21.36,18.28,32.04,46.07,32.04,83.38       c0,12.31-1.07,23.55-3.22,33.72c-2.15,10.17-5.46,19.33-9.93,27.49c-4.48,8.16-10.21,15.46-17.21,21.89       c-5.5,4.94-11.52,8.91-18.05,11.89c-6.53,2.99-13.55,5.08-21.05,6.3c-7.51,1.21-15.97,1.82-25.39,1.82h-54.14       c-7.55,0-13.25-1.14-17.07-3.43c-3.83-2.28-6.32-5.5-7.48-9.65c-1.17-4.15-1.75-9.53-1.75-16.16V988.33       c0-8.95,2.01-15.43,6.02-19.45C1145.4,964.87,1151.89,962.86,1160.84,962.86z M1176.93,995.74v139.2h31.48       c6.9,0,12.31-0.19,16.23-0.56c3.92-0.37,7.97-1.31,12.17-2.8c4.2-1.49,7.83-3.59,10.91-6.3c13.9-11.75,20.85-31.99,20.85-60.72       c0-20.24-3.06-35.39-9.16-45.47c-6.11-10.07-13.64-16.48-22.59-19.24c-8.95-2.75-19.77-4.13-32.46-4.13h-27.43V995.74z"/></g></g></g></g></g></svg>