<?xml version="1.0" ?><svg id="Layer_1" style="enable-background:new 0 0 284.625 267.515;" version="1.1" viewBox="0 0 284.625 267.515" xml:space="preserve" xmlns="http://www.w3.org/2000/svg" xmlns:xlink="http://www.w3.org/1999/xlink"><g><path d="M227.517,172.283l0.872,10.254l4.531,11.977l-1.915-22.527c6.719-0.305,13.182,0.932,19.034,3.411l-13.483,28.729   l1.725,4.561l14.923-31.796c5.78,3.011,10.835,7.274,14.778,12.463l-29.296,20.405l1.277,3.376l30.025-20.913   c3.431,5.35,5.741,11.511,6.574,18.186l-36.475,3.1c0.379,1.138,0.481,2.326,0.303,3.487l36.469-3.1   c0.305,6.719-0.933,13.182-3.411,19.034l-33.127-15.548c-0.111,0.534-0.275,1.061-0.505,1.571c-0.262,0.58-0.597,1.111-0.984,1.596   l33.123,15.545c-3.011,5.78-7.274,10.835-12.463,14.778l-20.908-30.018c-0.777,0.875-1.755,1.558-2.875,1.996l20.916,30.029   c-5.35,3.43-11.511,5.741-18.185,6.574l-3.1-36.474c-0.762,0.254-1.554,0.39-2.359,0.39c-0.381,0-0.758-0.031-1.128-0.088   l3.1,36.469c-6.719,0.305-13.182-0.933-19.034-3.411l15.555-33.144c-1.167-0.243-2.246-0.76-3.165-1.495l-15.556,33.145   c-5.78-3.011-10.835-7.274-14.778-12.463l30.037-20.921c-0.872-0.772-1.573-1.742-2.011-2.864l-30.032,20.918   c-3.431-5.35-5.741-11.511-6.574-18.185l36.461-3.099l-1.287-3.403l-35.47,3.015c-0.305-6.719,0.932-13.182,3.411-19.034   l31.612,14.836l-1.778-4.701l-28.339-13.3c3.011-5.78,7.274-10.835,12.463-14.778l11.501,16.513l-5.07-13.404l-3.563-5.116   c0.435-0.279,0.871-0.559,1.317-0.823l-2.762-7.301c-17.207,9.579-28.142,28.612-26.366,49.509   c2.415,28.419,27.412,49.5,55.832,47.084c28.419-2.415,49.5-27.412,47.084-55.831s-27.412-49.5-55.831-47.084   c-2.281,0.194-4.508,0.548-6.686,1.023l2.758,7.291C225.612,172.546,226.561,172.403,227.517,172.283z"/><path d="M101.185,230.492l-7.749-1.102c-0.503,1.547-1.086,3.059-1.751,4.528l-13.368-6.679l-10.948-1.558l22.745,11.364   c-3.152,5.704-7.538,10.653-12.822,14.468l-17.808-26.954l-4.63-0.659l19.522,29.548c-5.432,3.298-11.649,5.457-18.341,6.126   l-2.16-35.814l-3.285-0.467c-0.086-0.012-0.168-0.039-0.253-0.054l2.204,36.545c-6.725,0.14-13.155-1.256-18.945-3.877   l16.362-32.749c-1.171-0.27-2.242-0.801-3.137-1.553l-16.353,32.73c-5.704-3.152-10.653-7.538-14.468-12.822l30.536-20.174   c-0.85-0.793-1.527-1.777-1.939-2.914l-30.533,20.172c-3.298-5.432-5.457-11.648-6.126-18.341l36.548-2.205   c-0.352-1.152-0.423-2.345-0.22-3.493l-36.539,2.204c-0.14-6.725,1.256-13.155,3.877-18.945l32.742,16.359   c0.263-1.135,0.794-2.205,1.57-3.128l-32.741-16.358c3.152-5.704,7.538-10.653,12.821-14.468l20.167,30.524l2.439-2.658   l-19.69-29.802c5.432-3.298,11.648-5.457,18.341-6.126l2.117,35.091l3.29-3.585l-1.913-31.717   c6.725-0.14,13.155,1.256,18.945,3.877l-10.179,20.373l8.588-9.358l4.718-9.443c0.868,0.48,1.721,0.985,2.553,1.521l5.287-5.761   c-9.115-6.202-20.269-9.556-32.125-8.841c-28.47,1.717-50.158,26.189-48.44,54.659c1.717,28.47,26.189,50.158,54.659,48.44   C77.063,266.073,95.202,250.755,101.185,230.492z"/><path d="M103.195,212.759c-0.676-11.213-4.893-21.364-11.482-29.457l-5.282,5.756c0.295,0.381,0.576,0.773,0.859,1.164   l-4.895,3.234l-9.779,10.656l16.61-10.974c3.298,5.432,5.457,11.649,6.126,18.341l-14.963,0.903l22.896,3.257   C103.279,214.683,103.253,213.724,103.195,212.759z"/><path d="M128.257,234.343l-22.968-3.268c-0.215,6.071,4.013,11.555,10.166,12.714c0.782,0.147,1.56,0.218,2.327,0.218   c5.703,0,10.789-3.927,12.136-9.621c-0.202,0.017-0.405,0.031-0.608,0.031C128.962,234.417,128.607,234.392,128.257,234.343z"/><polygon points="118.95,217.867 112.143,193.826 107.912,216.297  "/><polygon points="118.009,159.486 125.763,186.872 134.92,154.483  "/><path d="M123.179,142.314l-4.345-1.164l-3.757,2.281c-0.452,0.274-0.927,0.521-1.404,0.741l0.25,0.88L123.179,142.314z"/><path d="M203.653,97.731c0.83,2.818,0.513,5.791-0.894,8.371c-1.928,3.539-5.631,5.738-9.665,5.738   c-0.757,0-1.508-0.098-2.248-0.254c-0.353,0.819-0.394,1.756-0.067,2.62l4.178,11.044l-22.17,6.559   c0.468,2.436,0.391,4.973-0.29,7.383l-0.001,0.003l22.484-6.652l3.804,10.375l-40.224,45.568l-4.063,14.372   c-0.125,0.441-0.269,0.872-0.429,1.295l49.516-56.096l26.12,69.05c0.529,1.4,1.86,2.263,3.274,2.263   c0.411,0,0.83-0.073,1.237-0.228c1.808-0.684,2.72-2.704,2.035-4.512l-38.136-100.813l15.012-15.361   c0.984-1.007,1.27-2.506,0.723-3.804c-0.546-1.298-1.817-2.142-3.226-2.142h-10.343C201.874,93.877,203.046,95.67,203.653,97.731z"/><path d="M49.067,213.502c-0.878,0.958-1.154,2.322-0.717,3.545s1.517,2.104,2.803,2.287l77.66,11.048   c0.167,0.023,0.333,0.035,0.497,0.035c0.235,0,0.465-0.029,0.69-0.074c0.062-0.013,0.12-0.035,0.181-0.05   c0.161-0.042,0.319-0.091,0.472-0.155c0.074-0.031,0.145-0.068,0.217-0.104c0.134-0.067,0.263-0.141,0.387-0.225   c0.07-0.047,0.138-0.095,0.205-0.147c0.125-0.099,0.241-0.207,0.353-0.322c0.037-0.038,0.082-0.067,0.117-0.107l14.649-16.595   c-2.254,1.198-4.807,1.87-7.471,1.87c-1.082,0-2.162-0.113-3.224-0.332l-4.957,5.616l-2.708-9.563   c-1.208-1.124-2.254-2.434-3.082-3.916c-2.074-3.708-2.584-7.997-1.449-12.088l-10.604-37.454l23.124-6.841l1.084-3.836   l-6.714-1.799l-19.402,5.74l-2.379-8.404c1.554-0.381,3.121-0.963,4.204-1.62l0.485-0.295l-14.025-3.758   c-1.579-0.423-3.085-1.09-4.479-1.984c-4.077-2.002-7.146-4.843-9.206-8.49c-0.861,0.69-1.534,1.61-1.815,2.625l-0.211,0.766   c-0.585,2.121,0.5,4.749,2.41,5.841l9.425,5.386c1.547,0.884,4.038,1.629,6.101,1.883c0.021,0.194,0.049,0.388,0.104,0.582   l2.918,10.306L49.067,213.502z M106.946,160.787l17.527,61.906l-65.756-9.355L106.946,160.787z"/><path d="M96.706,130.923c1.096,0.725,2.32,1.297,3.66,1.656l41.259,11.054l-14.552,51.471c-1.878,6.643,1.984,13.551,8.628,15.429   c1.137,0.322,2.281,0.475,3.407,0.475c5.452,0,10.465-3.597,12.021-9.103l18-63.667c0.91-3.219,0.492-6.668-1.16-9.577   c-1.653-2.908-4.402-5.033-7.633-5.898l-38.455-10.303c2.205-11.19,6.73-22.458,10.78-32.036l-11.491-6.262   c-2.58-1.406-4.458-3.732-5.288-6.551c-0.83-2.818-0.513-5.792,0.894-8.371c1.928-3.539,5.632-5.738,9.665-5.738   c1.827,0,3.646,0.464,5.257,1.343l7.16,3.902c-0.471-5.255-2.803-9.875-7.115-11.941c-7.936-3.8-20.989-1.747-28.865,11.584   C92.156,76.784,88.083,89.355,86.15,111.636C86.034,122.753,90.813,128.095,96.706,130.923z"/><path d="M130.262,57.48c-3.879-2.114-8.738-0.684-10.853,3.196c-2.114,3.879-0.684,8.738,3.196,10.853l66.667,36.333   c1.216,0.663,2.527,0.977,3.821,0.977c2.834,0,5.58-1.509,7.031-4.173c2.114-3.879,0.684-8.738-3.196-10.853L130.262,57.48z"/><ellipse cx="142.268" cy="22.504" rx="22.5" ry="22.5" transform="matrix(0.201 -0.9796 0.9796 0.201 91.6237 157.3441)"/></g></svg>