<?xml version="1.0" ?><!DOCTYPE svg  PUBLIC '-//W3C//DTD SVG 1.1//EN'  'http://www.w3.org/Graphics/SVG/1.1/DTD/svg11.dtd'><svg enable-background="new 0 0 128 128" height="128px" id="Layer_1" version="1.1" viewBox="0 0 128 128" width="128px" xml:space="preserve" xmlns="http://www.w3.org/2000/svg" xmlns:xlink="http://www.w3.org/1999/xlink"><g><path d="M93.634,126.665c-0.001,0-0.001,0-0.002,0c-5.071,0-10.296-1.263-14.71-3.553c-10.055-5.209-16.482-11.074-20.44-15.033   c-4.95-4.944-30.487-31.776-31.571-32.916c-3.385-3.386-3.531-8.397-0.304-11.624l0.381-0.381c1.137-1.137,2.543-1.91,4.078-2.262   l-2.37-2.371c-3.307-3.31-3.305-8.691,0.003-11.998l0.379-0.381c1.139-1.138,2.545-1.912,4.08-2.264l-1.167-1.167   c-1.597-1.597-2.477-3.728-2.478-5.998c0-2.272,0.879-4.402,2.477-6l0.386-0.385c1.788-1.789,3.869-2.735,6.019-2.735   c1.937,0,3.831,0.791,5.512,2.295c0.311-1.502,1.061-2.917,2.252-4.109l0.383-0.382c1.596-1.597,3.727-2.478,5.999-2.478   s4.402,0.88,6,2.479l41.308,41.323l-6.034-16.201c-1.694-3.381-1.04-7.433,1.647-10.122c0.607-0.607,1.297-1.119,2.054-1.523   l0.414-0.265c0.05-0.032,0.102-0.062,0.154-0.089c1.238-0.646,2.629-0.986,4.024-0.986c3.291,0,6.273,1.805,7.783,4.709   c0.022,0.044,0.044,0.088,0.063,0.133l15.069,35.06c1.049,1.891,10.208,19.946-9.977,40.132   C109.098,123.521,101.692,126.665,93.634,126.665z M32.988,64.682c-1.203,0-2.329,0.465-3.172,1.307l-0.38,0.38   c-1.857,1.858-1.236,4.426,0.339,6.001c0.299,0.313,26.622,27.97,31.536,32.88c3.771,3.771,9.891,9.355,19.454,14.31   c2.234,1.159,6.873,3.104,12.867,3.104c0.001,0,0.001,0,0.002,0c6.975,0,13.4-2.739,18.583-7.92   c19.018-19.02,9.404-35.202,9.305-35.363c-0.051-0.084-0.096-0.171-0.135-0.26l-15.079-35.084   c-0.828-1.541-2.433-2.495-4.201-2.495c-0.737,0-1.444,0.167-2.103,0.497L99.6,42.296c-0.051,0.032-0.103,0.062-0.156,0.09   c-0.426,0.221-0.812,0.505-1.152,0.845c-1.457,1.457-1.813,3.744-0.868,5.563c0.038,0.072,0.071,0.147,0.1,0.224l9.283,24.924   c0.328,0.882-0.002,1.874-0.794,2.382s-1.831,0.398-2.496-0.269L55.708,28.231c-0.842-0.842-1.967-1.306-3.17-1.306   c-1.202,0-2.328,0.464-3.169,1.306l-0.384,0.383c-1.84,1.84-1.589,4.697,0.611,6.946l24.803,24.803c0.781,0.781,0.781,2.048,0,2.83   c-0.782,0.782-2.048,0.782-2.83,0L41.541,33.164c-1.039-1.038-2.099-1.565-3.148-1.565c-1.345,0-2.477,0.85-3.189,1.562   l-0.386,0.386c-0.841,0.841-1.305,1.967-1.305,3.169c0,1.202,0.464,2.328,1.306,3.169L64.69,69.756c0.782,0.782,0.782,2.048,0,2.83   c-0.781,0.781-2.048,0.781-2.83,0L38.152,48.878c-0.803-0.771-1.903-1.211-3.07-1.211c-1.203,0-2.33,0.464-3.173,1.307   l-0.379,0.381c-1.751,1.75-1.752,4.593-0.005,6.341l25.302,25.299c0.782,0.782,0.782,2.049,0,2.83c-0.781,0.781-2.048,0.781-2.83,0   L36.061,65.892C35.257,65.122,34.155,64.682,32.988,64.682z"/></g><g><path d="M29.294,107.115c-0.31,0-0.623-0.071-0.917-0.224c-0.332-0.171-8.24-4.344-17.336-16.416   C1.944,78.406,0.113,69.653,0.04,69.286c-0.217-1.084,0.485-2.138,1.569-2.354c1.087-0.215,2.138,0.484,2.355,1.568   c0.016,0.077,1.78,8.299,10.273,19.566c8.553,11.353,15.905,15.232,15.979,15.271c0.981,0.507,1.366,1.714,0.858,2.695   C30.718,106.721,30.019,107.115,29.294,107.115z"/></g><g><path d="M30.769,95.04c-0.345,0-0.695-0.09-1.014-0.278c-0.193-0.114-4.79-2.878-10.32-10.217   c-5.53-7.339-6.919-12.518-6.976-12.734c-0.278-1.069,0.363-2.162,1.432-2.44c1.067-0.278,2.162,0.362,2.441,1.433   c0.011,0.039,1.296,4.694,6.298,11.334c5.004,6.64,9.126,9.158,9.167,9.184c0.945,0.567,1.256,1.794,0.691,2.742   C32.115,94.69,31.451,95.04,30.769,95.04z"/></g><g><path d="M92.558,32.633c-0.724,0-1.422-0.393-1.777-1.079c-0.059-0.11-4.028-7.511-15.271-15.982   C64.238,7.079,56.018,5.314,55.937,5.297c-1.08-0.223-1.779-1.278-1.56-2.359c0.22-1.081,1.274-1.782,2.352-1.563   c0.367,0.073,9.118,1.905,21.189,11.001c12.071,9.095,16.244,17.005,16.415,17.337c0.508,0.981,0.123,2.188-0.859,2.696   C93.181,32.562,92.866,32.633,92.558,32.633z"/></g><g><path d="M80.481,34.109c-0.683,0-1.348-0.35-1.722-0.979c-0.049-0.08-2.574-4.186-9.182-9.166c-6.638-5.002-11.294-6.287-11.34-6.3   c-1.065-0.286-1.702-1.379-1.42-2.445c0.281-1.066,1.365-1.705,2.436-1.427c0.217,0.057,5.395,1.446,12.733,6.975   c7.342,5.532,10.103,10.128,10.216,10.321c0.562,0.952,0.246,2.179-0.704,2.741C81.179,34.02,80.827,34.109,80.481,34.109z"/></g></svg>